<svg version="1.1" id="Layer_1" xmlns="http://www.w3.org/2000/svg" x="0" y="0" viewBox="0 0 661.3 311.1" xml:space="preserve"><style>.st1{fill:#231f20}.st2{fill:#fff}.st6{fill:#37474f}.st7{fill:#505e65}.st9{fill:#414c51}.st13{fill:#263238}</style><ellipse cx="353.7" cy="300.3" rx="26.8" ry="1" fill="#c9cccd"/><path class="st1" d="M456.7 275c-7 .8-14.1.2-21.1.2-4.5 0-8.9-.4-13.4-.9-12.2-1.5-24.2-1.5-36.5-.4-.3 0-.4.4-.1.3 13.4-1.2 26.3-.7 39.6.8 4.3.5 8.5.5 12.8.5 6.2-.1 12.4.5 18.6-.2.3 0 .5-.4.1-.3zM294.3 277c-21.1.9-42.3.3-63.4.4-13.9.1-27.9.2-41.8 0-36.1-.5-72.2-2.1-108.3-2-21.5.1-42.9.6-64.4 1.2-.3 0-.4.3-.1.3 38.9-1.1 77.8-1.5 116.8-.7 31.1.7 62.1 1.6 93.2 1.5 22.7-.1 45.4.5 68-.4.2 0 .3-.4 0-.3zM645.8 275.9c-7 .8-14.1.2-21.1.2-4.5 0-8.9-.4-13.4-.9-12.2-1.5-24.2-1.5-36.5-.4-.3 0-.4.4-.1.3 13.4-1.2 26.3-.7 39.6.8 4.3.5 8.5.5 12.8.5 6.2-.1 12.4.5 18.6-.2.3 0 .4-.4.1-.3z"/><path class="st2" d="M440.2 290.1l-5.8 3.1s-4.1-1.1-1.9-3.3c2.3-2.3 5.5-15.2 5.5-19.4 0-4.2-7.4-15.2-20.6-24.2s-31.6-29.4-40-36.8c-8.4-7.4-6.1-21.3-3.5-24.5 2.6-3.2 11-7.4 11-7.4l12.3-4.3 70 82-1.9 15.8-25.1 19z"/><path d="M383.3 169.3s-12.5 2.8-12 13.4c.5 10.7 20.9 33.4 33.4 42.6 12.5 9.3 28.3 19.9 29.7 25 1.4 5.1 4.2 13 2.8 17.1-1.4 4.2-7.9 13-5.6 13.9 2.3.9 17.6-12.5 17.6-12.5l7.4-30.1s-23.6-41.7-26.4-44c-2.8-2.3-31.5-26.9-33.4-27.3-1.9-.4-13.5 1.9-13.5 1.9z" fill="#283593"/><path d="M435.1 37.6l39.9-19s28.3 20.4 41.7 41.2c13.4 20.9 24.1 48.2 24.1 48.2l-15.3 12-90.4-82.4z" opacity=".75" fill="#64ffda"/><path d="M444.3 282.2s14.2-4.2 22.7-8.8c8.5-4.6 17.1-14.4 18.5-17.6 1.4-3.2-1.1-7-3.9-11.6s-8-10.7-12.7-18.1c-4.7-7.4-11.8-21.8-14.1-26.4-2.4-4.6-4.7-9.3-4.7-9.3s1.9-7 12.7-9.3c10.8-2.3 25.9-1.9 31.5-.9 5.6.9 29.6 9.3 32.4 2.3 2.8-7 2.4-13.9 2.4-28.3s-25.9-83.9-42.8-95.9-31.5-19-40.9-15.8c-9.4 3.2-1.9 16.2-8.5 22.7s-19 9.9-19 9.9-16.6 24.4-15.1 29c.1.4-.2.7-.7 1-.6.3-1 14.2-2 14.4-.7.2.5-13.1-.3-13-1.9.2-6.6 0-8.3-.2-4.7-.5-10.8 2.8-10.8 2.8L392 134s-20 11-22.9 15.1c-2.8 4.2 8.3 4.4 11.4 9.6 2.1 3.4-4.6 7.7 5.2 16.1 3 2.6 22.1 18.1 38.1 33.8 16 15.8 30.2 28.6 32 42.6 1.9 13.9-11.5 31-11.5 31z" fill="#497aff"/><path class="st6" d="M430.7 45.8c6.9-4 13.9-7.8 21-11.5 3.6-1.8 7.2-3.6 10.8-5.2 3.6-1.6 7.3-3.2 11.2-4.5 1.9-.6 3.9-1.2 5.9-1.6 1-.2 2.1-.3 3.2-.1 1.1.3 2 .6 3 1.1 3.7 1.8 6.9 4.5 9.8 7.2 2.9 2.8 5.6 5.8 8 9.1.6.8 1.2 1.7 1.7 2.5.3.4.5.9.8 1.4.2.5.4.8.7 1.3 1 1.6 2.3 3 3.7 4.3 2.9 2.7 5.9 5.5 8.4 8.6 2.6 3.2 4.6 6.7 6.5 10.2 1.9 3.5 3.7 7.2 5.2 10.8 1.6 3.7 3 7.5 3.9 11.4.5 2 .9 4 1 6 .1 2 .1 4.2-.7 6.2-.8 2-2.1 3.6-3.5 5.1-1.4 1.5-2.9 2.8-4.5 4-3.1 2.5-6.3 4.9-9 7.8-2.7 2.9-4.9 6.3-5.9 10.2.8-3.9 2.9-7.5 5.5-10.5s5.8-5.6 8.8-8.2c1.5-1.3 3-2.6 4.3-4 1.3-1.4 2.5-3 3.1-4.8.6-1.8.7-3.7.5-5.7-.2-1.9-.6-3.9-1.1-5.8-2.2-7.6-5.5-14.9-9.3-21.8-1.9-3.5-4-6.9-6.4-9.9-2.5-3.1-5.4-5.7-8.3-8.4-1.5-1.4-2.9-2.9-4-4.7-.3-.4-.5-1-.7-1.4-.2-.4-.4-.8-.7-1.2-.5-.8-1-1.6-1.6-2.4-2.3-3.2-4.9-6.2-7.7-8.9s-5.9-5.3-9.3-7c-.8-.4-1.8-.8-2.6-1-.8-.1-1.8-.1-2.7.1-1.9.3-3.8.8-5.7 1.4-7.5 2.5-14.8 5.8-22 9.2-7.1 3.4-14.2 7.1-21.3 10.7z"/><path class="st2" d="M459.2 66.4c2.8 6.4 3 13.7 5.8 20 1.4 3.1 3.3 6 5.4 8.8 2.1 2.7 4.4 5.3 6.9 7.8 4.9 4.9 10 9.6 15.4 14.1 2.7 2.2 5.4 4.4 8.2 6.4 2.8 2.1 5.7 4 8.6 5.9-3.1-1.6-6.1-3.5-9-5.4-2.9-1.9-5.7-4-8.5-6.1-5.5-4.3-10.7-9-15.7-13.9-2.5-2.5-4.8-5.2-6.9-8-2.1-2.8-4.1-5.8-5.4-9.1-1.3-3.3-2-6.8-2.6-10.2-.4-3.5-1-6.9-2.2-10.3z"/><path class="st7" d="M371.9 9.1h-.1.2zM372.4 9.1s.1 0 .1-.1l-.6.1c-.3.2.7-.1.5 0z"/><path class="st7" d="M372.3 9.1c-.1.1.1 0 .2 0-.2 0 .1-.1-.2 0zM373.2 11.2zM374.3 11.5l.2-.1c-.4 0-.1-.2-.3-.3h.1c0-.3-.5-.5-.7-.7h.1-.2.1c.3-.2-.3-.1 0-.2 0 0-.2 0-.3.1-.2-.2-.3-.4-.7-.5 0 0 .1-.1.3-.1-.6 0-.5-.3-.5-.5-.2 0-.1.1-.3.1-.2.1.4 0 .2.1h-.1c-.1.1.4-.1.2 0-.1.1-.2.1-.2.1.1.1 0 .2.4.2-.3.1 0 .1-.3.2.1 0 .1 0 .3-.1 0 .4.4.6.5.9.7-.1 0 .4.3.5h-.1c.2 0 .3.1.2.2h.3c-.4.6.2.9.1 1.4 0 .5-.3 1.1.7 1.3h-.1c.2.1 0 .3.2.4h-.1c.6.1.2.7.8.8.1.4.3.8.6 1.1h-.1c.4.2-.2.8.2 1-.2.4.9.4.7.9-.5.4.8.2.3.6-.8.7 0 .9.6 1.1-.2.5.8.5.2 1.1.5 0-.4.5-.2.7l.1-.1c-.4.2.7-.1 0 .2-.3.2.8-.2.4 0l.2-.1c.1 0-.2.1-.2.1s.3-.1.2 0c-.7.3.2 0-.6.3 0 0-.3.1-.5.2-.1 0 0 .1.3 0s.7-.2.9-.3l-.3.1c.2-.1.1-.1.3-.1 0-.1.4-.2.5-.3-.3.1-.1 0-.1-.1l.1-.1c.3-.1-.6.1-.1 0-.2-.1-.2-.2-.3-.3-.2.1 0-.1-.4.1.4-.2.5-.3.4-.3h.1c.5-.3-.5.1.1-.2-.5.2.1-.2-.5 0 .1 0 .2-.1.3-.1 0-.1.1-.3.1-.4-.4.1.1-.3-.5-.1.1-.1.3-.3 0-.3h.1c-.1-.1-.1-.2-.5-.1.5-.2.4-.2.6-.3-.3 0-.2-.1-.5-.1.2-.1-.1 0 .2-.2-.8 0-.7-.4-.2-.9-.2 0-.7.2-.9.2h.1c-.1 0 .3-.2.2-.2h.1c-.2 0 .3-.2 0-.2h.1-.1c.1 0 .3-.1.3-.1 0-.5-.8-.7-.9-1.2h.1-.2.1c.2-.2-.2-.2-.2-.3.1 0 .2 0 .2-.1-.4 0 .4-.3-.3-.1l.2-.1c-.3-.1-.4-.4-.4-.6-.7 0-.2-.4-.8-.4h.1c-.5-.1-.2-.5-.3-.8 0-.1-.2-.1-.2-.3l.2-.1c-.6 0 .4-.6-.3-.5l.2-.1c-.3.1.1-.2-.5.1l.2-.1c-.8.1.2-.4-.3-.4h.1c-.1 0-.2 0-.1-.1h.1c.5-.3-.2-.3-.2-.4l.2-.1c-.3 0-.1-.2-.3-.2h.1-.2l.2-.1c.1-.6-.1-.6-.2-.7zM373.6 10.4zM379.1 21.6c0 .1 0 .1 0 0 0 .1 0 .1 0 0zM405 55v.2l.5.2zM407.3 57.2c0-.1.1-.1.1-.2l-1.8-1c0 .9 1.7.5 1.7 1.2zM407.5 57.7c.2.7.7.7.9.8-.4-.1-.6-1.2-.9-.8zM378.1 69.7s.1.1.2.1c-.1-.1-.2-.1-.2-.1z"/><path class="st7" d="M365.9 59l-.4.1c1.2.8 2.3 1.9 3.3 2.9 1.1 1.3 2.2 2.7 3.5 3.9l-.2-.1c2.7 3 5.4 5.8 8.2 8.5 2.8 2.7 5.7 5.3 8.8 7.8-.1-.1-.2 0-.3-.1.4.2.8.3 1.2.6 0 .1-.2 0-.3 0 .2.4.6.8 1 1.1.4.4.9.7 1.5.9l.4.2c.1 0 .3.1.4.1.3.1.5.1.7.2.5 0 .8.1 1.1.2.5-.1.6-.4.4-.5 1.4-.2 2.8-.8 4.1-1.6 1.3-.8 2.5-1.9 3.7-2.9 1.1-1.1 2.2-2.3 3.2-3.5.1-.1.2-.3.3-.4l.3-.5.6-1c.4-.7.8-1.3 1.2-2 .2-.2.4-.2.5 0 .6-1.5 1.3-2.9 1.9-4.4.3-.7.6-1.4.7-2.1.1-.3.1-.6.1-.9 0-.3 0-.3-.1-.5-.9-1.9-2.1-4-3.2-5.9-.3 0 .1.6-.4.3.7 1.7 2.2 2.5 2.6 4.1l-.3-.1c.4 1.1.7-.1 1 1.1 0 .5-.3 0-.3.2.1.1.2.3.2.4V65.7c-.1.4-.2.8-.3 1.3-.3 1-.7 2-1 3-.7.2-1.4 2.2-2.3 2.7-.2.6-.6 1.1-.4 1.5l-1 1.3-.5.6-.1.1-.1.1-.3.3c-.7.8-1.5 1.6-2.3 2.3-1.5 1.5-3.2 2.8-4.9 3.9-.9.5-1.8.9-2.7 1.1-.9.2-1.7.2-2.5-.2-.6-.3-1.6-1.1-2.4-1.7-.8-.7-1.7-1.4-2.5-2.2-3.8-2.1-6.4-6.6-10.1-10 0-.1 0-.1.1-.1-1.3-1-3-2.7-4.2-4.2l-1.4-.9c-.9-1.1-1.8-2.2-2.7-3.4-1.8-1.9-3.5-3.7-5.2-5.7-.8-1-1.7-2-2.5-3l-.6-.8-.1-.2-.1-.1c0-.1-.1-.2-.2-.3-.2-.4-.2-.9-.2-1.4.1-1 .5-2.2 1.1-3.3.6-1.1 1.2-2.2 2-3.2 1.5-2.1 3.2-4 5.1-5.8 1.2-1.2 2.4-2.3 3.6-3.4.3-.2.6-.6.8-.7.3-.2.7-.4 1-.6.7-.4 1.4-.8 2-1.1 2.8-1.4 5.6-2.5 8.5-3.1 2.9-.6 5.8-.8 8.6-.2 2.8.5 5.6 2 8.4 3.5-.1.1 0 .2-.3 0 3.2 2 5.5 4.6 8.4 6.8l-.1.1c3.7 2.6 7.5 5.5 11.9 7.2 1.1.5 2.2.8 3.3 1.2 1.1.2 2.3.6 3.4.7 1.1.1 2.2.3 3.4.3h1.7c.6 0 1.1-.1 1.6-.1h1l1-.1c.7 0 1.3-.2 2-.3.7-.1 1.3-.4 2-.6.6-.3 1.3-.5 1.9-.9 1.2-.6 2.4-1.3 3.7-1.8.6-.3 1.3-.5 1.9-.7.7-.2 1.3-.3 2-.5 2.7-.5 5.6-.4 8.4-.3 2.8.2 5.5.9 8.1 1.8l-.1.2c4.2 1.4 7.8 3.9 11.1 6.7l2.4 2.1 2.3 2.3 1.2 1.1 1.1 1.2c.7.8 1.5 1.6 2.3 2.3 1.4 1.8 2.9 3.5 4.4 5.2 1.4 1.8 3 3.5 4.4 5.4 1.4 1.9 2.9 3.7 4.1 5.6 1.3 2 2.5 3.9 3.5 6 .9 2.7 2.8 5.4 4.5 8.2 1.7 2.8 3.4 5.5 4.1 8.1 3.3 10.5 8 19.9 12 30.2 1.1 4.9 2.5 9.8 3.6 14.7 1 4.9 1.8 9.9 1.5 14.8.5 2.3.4 4.8.1 7.2-.3 2.5-.7 5-.8 7.6l.3-.2c-.9 1.8.7 4.2-.6 5.2v-.2c-.7.9 1 2.5.2 2.9l.3.2c-.2 1.2-.3.1-.6 1 0 .3.5.2.2.9-.6-.1-.7.7-.8 1.4-.1.7-.3 1.4-1 1.2.2-.6-.8.7-.6-.6-.1.2-.3.7-.4 1.1 0 .1 0 .2-.1.3v.2h.1l.4.4c0 .1.1.1.1.1l-.4-.4.3.3-.3-.3v.2c0 .1 0 .2.1.2 0 .2.1.3.2.4.1.1.2.2.3.2.2 0 .3.1.7-.3-.1-.2-.2-.3-.3-.5.6-.2.3-.2.7-.2.6-1.5 1.3-1.6 1.8-2.7-.3-.9.2-1.9.4-2.5l.3-.2c.6-.3-.7-2 .1-1.4.3-3.3.7-7 .8-10.6-.3-.5.1-2.8-.6-2 .7-.9.9-3.6.8-4.6.1 0 .1.1.1.2.9-2-1-2.3.1-4.2-.8-.2 0-3.3-1-4.3.2-.2.3-.3.5-.3-.3-3.3-.5-6.9-1-9.7-1.1-2.2-.7-5.7-2.2-7.5-.2-1.7-.4-4.4-1.4-6.6l.2.2c-.4-1.3-.8-2.7-1.3-4-.5-1.3-1-2.5-1.6-3.2.7-1 .1-2.1 0-3.3-.5-.8-1-2-1.6-3.4-.6-1.3-1.2-2.8-1.8-4 .3-.5-1-2-.4-2.4-1-1.6-2-3.4-2.9-5.3-1-1.8-1.9-3.7-2.7-5.7l-1.2-3c-.4-1-.9-2-1.3-2.9-.8-2-1.6-3.9-2.3-5.8l.1.1c-.8-.8-2.1-1.5-3-2.2 0-.1.1-.2.2 0-.8-1.2-.9-2.7-1.7-4 .1 0 .1 0 .3.1-.9-1.1-1-2.7-2.3-3.9l.1-.2-.7-.8c.2-.1.5-.2.7.3-1.6-2.8-3.4-5.4-5.3-8-.9-1.3-2-2.6-3-3.8l-1.5-1.9-1.6-1.8c-4.3-4.9-9.1-9.4-14.4-13.3l.5.1-2.3-1.1c.1-.1.2-.1.3 0-1.2-1.1-2.7-1.8-4.2-2.6-.7-.4-1.5-.6-2.3-1-.8-.3-1.5-.7-2.2-.9 0-.1.6-.1.2-.4-1.2-.1-2.1-.6-2.8-1-.8-.3-1.4-.5-2.1 0-.1-.1-.1-.4.1-.4-.8-.2-1.7-.2-2.5-.3l-1.3-.1h-1.2c-.8 0-1.6-.1-2.5 0-.8 0-1.7.1-2.5.1-1.7.2-3.4.4-5 .9-1.7.5-3.2 1.2-4.6 2-1 .8-2.1 1.6-3.4 2-.6.2-1.3.4-2 .5-.7.1-1.4.2-2.1.2-2.8.1-5.6-.4-8.4-.5l.1-.2c-3.6-.3-7.1-1.8-10.2-3.9-3.1-2.1-5.8-4.7-8.7-7.1-2.3-2.1-4.1-3.3-6.7-5l.1-.3c-2.5-1-4.7-2.6-7.4-3.6s-5.8-1.2-8.4-.2l.3-.4c-.4.4-1.2.5-1.9.6-.7.2-1.2.4-.9.8h-1c-1.6 1.2-3.2 1.6-4.9 2.2-1.7.6-3.5 1.3-5.2 2.9l.1-.4c-.9.9-1.7 2-2.5 2.5.1-.1 0-.1.1-.4-3.4 2-5.6 5.9-7.8 9.1l-.1-.6c-.4.9-1.1 2.1-1.8 3.4-.7 1.3-1.3 2.8-1.1 4.2l-.2-.2c0 .2.1.5.2.7l.3.6-.4.2c.1.2.2.5.3.7.1.2.3.4.4.6.3.3.5.6.8.9.5.6 1.1 1.2 1.6 1.8 1.5 1.9 2.6 3.1 3.7 4.2z"/><path class="st7" d="M389.6 82.6s-.1 0 0 0c-.2-.1-.1-.1 0 0zM529.9 184.2c-.1.1-.1.3-.2.4.1 0 .1-.3.2-.4zM411.3 104.1l.1.1v-.4zM412 102.9c-.1 0-.1-.1-.2-.2 0 .4 0 .8-.1 1.2.6.3-.1-1.2.3-1zM412.2 102.9c.4 0 .2-.4.1-.6.1.4-.5.2-.1.6zM408.6 85.4c0 .1 0 .1 0 0z"/><path class="st7" d="M404 83.8l-.2.3c1.1-.2 1.4.9 2.3 1.2l-.1.1c1.6 1.5 3.3 2.7 4.7 4.5h-.2c.2 0 .4 0 .5.1-.1.1-.2.1-.2 0-.3.7 1 1.1.7 1.5.1.1.4 0 .5-.1.9 1.6 1.6 3.4 2.3 5.3-.1.1-.2.1-.4.1.3.4.5.8.6 1.3v-.2c.4 1.8-.6 3.4-1.9 4.3.1.2.3.1.4.4.4-.1.5-.5.6-.8.1-.3.2-.7.5-.8l.2.2c.4-.4-.5-.4 0-.7.3-.1.3.2.3.1.1-.4.3-.8.3-1.3v-.7c0-.3-.1-.4-.2-.8v.2c-.1-.2-.2-.3-.3-.5.5-.2-.1-.9.4-1.2-.2-.2-.2-.4-.6-.4-.2-2.7-1.7-5.1-3.1-7.4-.8-.2-1.1-.8-1.5-1.5-.3-.7-.7-1.4-1.3-1.8 0 0 0-.1.1-.1-.5-.2-1.1-.5-1.4-1h-.7c-.6-.7-1.2-1.4-2-1.8-.7-.5-1.6-.8-2.4-1.1-.8-.3-1.7-.5-2.5-.7-.8-.2-1.7-.4-2.5-.6-3.8-.8-7.3-1.7-11-.2 0-.1 0-.2.1-.2-1 .5-2 .2-3 .5v-.1l-.9.3c-.1 0-.4.1-.6.1-.2 0-.4.1-.6.2-.2.1-.3.2-.5.4-.2.1-.3.3-.4.4l-.7.7c-.9.9-1.8 2-2.1 3.3-.9 1.2-1.7 2.6-2.2 4.1-.3.7-.5 1.5-.7 2.3-.1.4-.1.8-.2 1.2l-.1.6v.6h-.2c.1.6 0 1.3.1 1.9 0 .6-.1 1.2 0 1.9 0 .6.1 1.3.3 1.9.2.6.4 1.2.8 1.7.7 2.5 3.4 4.2 4 6.7-.2 1.9 2.7 2.8 2.4 4.6-.1 3.4 2.2 5.6 4.4 8 .7 2.8 3.3 4.7 3.5 7.6 1.2.8.4 2.8 1.2 4l.2-.2c-.5.8 1.5.5.6 1.4h-.1c-.4.5 1.5-.1 1 .4l.3-.1c.2.3-.3.2-.3.5.1.1.5-.2.4 0-1 .6.6.6-.6 1.2-.1-.2-.3.5-.8.2-.1.2.2.6.7.3.6-.2 1.1-.3 1.4-.8l-.4.1.4-.4c-.1-.4.4-.8.5-1.2-.6 0-.4-.4-.4-.6l.2-.2c.4-.3-1.1 0-.3-.3-.6-.7-1-1.6-1.5-2.5-.4 0-.3-.7-.8-.2.5-.5.4-1.3.2-1.5h.1c.6-.9-1.1-.2-.3-1.1-.8.3-.2-.9-1.2-.8.1-.1.3-.2.4-.3-.4-.8-.6-1.8-.9-2.5-.9-.3-.4-1.6-1.5-1.6 0-.5 0-1.4-.6-1.8h.1c-.4-.6-.8-1.4-1.6-1.6.8-.6.4-.8.6-1.2-.6-.2-.9-1.2-1.6-1.7.3-.3-.4-.5.1-.8-2-1.3-2.8-3.9-3-6.3h.1c-.4-.1-1.3-.1-1.8-.2 0 0 .1-.1.2 0-.3-.3.1-.9-.2-1.2h.2c-.4-.2.1-.9-.5-1.1l.1-.1-.3-.2c.2-.1.5-.2.5 0-.7-1.6-1.7-3.1-2.7-4.6-.5-.8-1.1-1.5-1.4-2.2-.2-.4-.4-.7-.5-1.1l-.3-1.2.2.1c-.2-.2-.3-.4-.4-.6h.2c.2-.4.1-.8-.1-1.2-.1-.4-.2-.8-.1-1.2.1 0 .3.1.4.1-.6-.7.9-.8-.3-1.3.1 0 .3 0 .4.1-.1-1.7.5-3.4 1.5-4.8-.1-.9.2-1.6.7-2.2.4-.7.9-1.2 1.1-2.1l.2.1c.3-1 1.1-1.8 1.9-2.3.2-.1.4-.2.7-.2h.7c.5 0 1 0 1.6-.1.9 0 1.4-.2 2.3-.3v.3c1.5-1.1 3.1.9 4.6-.2l-.1.4c.3-.6.9.2.9-.7l.3.3c1.1-1.2 1.8.7 3.2 0l-.1.2c.4-.2.8-.2 1 0 0 0 0 .1-.1.1.5.5 1 .6 1.6.5.6 0 1.2-.1 1.7 0l-.2.4c.6-.4 1.5.4 2.2.3l-.1.2c.1-.1.3-.1.4-.2l-.1.4c.8.5 1.8.4 2.6.8zM410.7 90.1zM393.8 133.8v0z"/><g><path class="st9" d="M401.9 108.3l.1.1-.3-.2z"/><path class="st9" d="M401.2 107.9h-.2l.9.4c.6 0-1-.4-.7-.4zM401.3 107.9c.2 0-.2-.1-.4-.2.4.1 0 .1.4.2zM402.5 102zM401.5 100l-.3-.1c.5.5-.2.6-.1 1l-.1-.1c-.4.7-.1 1.6 0 2.5 0 0-.1-.1-.2-.1.1.1.3.2.3.2-.1 0-.2-.1-.2-.1-.6 0 .3.6-.2.6.1.1.3.1.5.2 0 .6 0 1.3.3 2-.1 0-.2 0-.4-.1.9.7.4 1.2.1 1.7.2.1.3 0 .5.1.3-.1-.6-.4-.1-.5l.2.1c.2-.1-.6-.1-.3-.2.2 0 .3.1.3.1-.1-.3.2-.5-.3-.8.5 0 .1-.3.6-.2-.2-.1-.1-.2-.5-.3.4-.8.2-1.7.4-2.5-.9-.7.4-.8.3-1.3h.1c-.2-.2-.2-.5-.1-.6l-.4-.3c1.2-.8 1.1-2.1 1.9-3 .8-1.1 1.9-1.8 1.3-3.6.1 0 .1.1.2.1 0-.4.5-.6.4-1h.1c-.4-1.2 1-1.5.5-2.7.6-.9 1.1-1.9 1.4-3l.2.1c.1-1 1.5-1.1 1.6-2.1.9-.5 0-2.2 1-2.6 1.1.1-.3-1.7.9-1.6 1.9 0 1.7-1.5 1.5-2.9 1-.5.4-2.2 1.9-2.3-.3-.8 1.3-.3 1.4-.8l-.2-.1c.7.3-.6-1 .4-.4.5.3-1-1-.4-.6l-.2-.2c0-.1.3.2.4.2 0 0-.4-.3-.2-.3 1 .7 0-.4 1 .4 0 0 .5.2.6.5.1.1.2-.1-.3-.5s-.8-.8-1.3-.9l.3.3c-.4-.2-.2-.1-.5-.3-.1.1-.7-.3-.9-.3.4.4.1.3 0 .3l-.2-.1c-.4-.3.7.7 0 .2 0 .4-.2.7-.4 1 .2.2-.2.2.4.5-.6-.4-.9-.2-1-.1-.1 0-.1-.1-.1-.1-.9-.4.6.7-.5.2.6.5-.4.1.3.8-.2-.1-.3-.2-.4-.3-.2.3-.7.4-.8.6.4.6-.6.3.1 1-.3 0-.8 0-.6.4l-.1-.1c-.1.2-.2.6.2 1.1-.8-.5-.7-.3-1-.3.3.4 0 .6.1 1.1-.4-.2 0 .3-.5-.1.6 1.3-.3 1.8-1.5 2 .2.3.8.8 1.1 1.1-.1 0-.1-.1-.1-.1 0 .2-.6 0-.6.2-.1-.1-.1-.1-.2-.1.2.3-.6 0-.3.4l-.1-.1.1.2c-.2-.1-.4-.3-.4-.3-.9 1-.6 2.6-1.4 3.7l-.1-.1.2.4c-.1-.1-.1-.1-.2-.1-.5.1-.1.7-.4.9-.1-.1-.2-.2-.4-.2.4.5-.8-.1.1.6-.1 0-.3-.1-.4-.2 0 .8-.3 1.3-.8 1.8.7 1-.5 1 0 1.9l-.2-.1c.3 1-.8 1.3-1 2-.2.2-.1.5-.2.8l.4-.5c.7.9-1.3.6-.5 1.6l-.3-.2c.5.3-.3.2.6.6h-.3c1 .9-.8.4-.3 1.1l-.2-.1c.1.2.2.4 0 .4 0 0-.1 0-.1-.1-1 0-.2.8-.4 1.1l-.4-.2c.4.4-.2.5-.1.8l-.2-.1.2.2-.4-.1c-.2.3 0 .7-.1 1zM401 103.3zM415.1 73.6c.1 0 .1 0 0 0 .1 0 .1 0 0 0z"/></g><g><path class="st9" d="M410.4 141.1v.1l.1-.4zM411 140.2c0-.1 0-.2-.1-.2l-.3 1c.3.5.2-1.1.4-.8zM411.1 140.3c.2.2.2-.3.2-.4 0 .3-.3-.1-.2.4zM425.3 139.3s-.1.1 0 0c-.1.1 0 .1 0 0z"/><path class="st9" d="M429 137.9l.1-.4c-.7.6-1.5-.1-2.2.2l.1-.1c-1.9-.2-3.6.5-5.5.8 0 0 0-.1.1-.2-.1.1-.2.4-.3.3 0-.1 0-.2.1-.2-.4-.6-1.1.4-1.4 0-.1.1-.1.3-.1.5-1.4.2-3 .4-4.4 1-.1-.1-.1-.2-.1-.4-1.2 1.1-2.5.8-3.8.8 0 .3.2.3.1.5.4.3.7-.7 1.1-.3v.2c.3.1 0-.6.3-.3.1.2 0 .3.1.3.6-.2 1.2 0 1.7-.6.2.5.6 0 .9.5.1-.2.3-.2.3-.5 2 .2 4.1-.5 6.2-.5 1-1.1 2.1.2 3.3-.2v.1c.4-.3.9-.4 1.4-.2l.4-.4c2.7 1 5.5.4 8.2 1 1.5.3 3 .6 4.4.9 1.4.2 2.9.3 4.5-.2 0 .1 0 .2-.1.2.9-.1 1.6.4 2.5.4v.1c1.1-.2 2.1 0 3.2.3 1 .3 2 .5 3.1.3 1.2.3 2.4.6 3.7.9 1.3.2 2.6.4 3.9.5v.2c2.1-.1 3.9 1.3 6 1.2 2.1.7 4.4-.8 6.5 0 1.3 1.1 3.1-1 4.3.1 2.5 1.7 5 .7 7.5-.3 2.4.6 4.6-1 6.9.1 1-.8 2.3.8 3.5.5l-.1-.3c.5.7.9-1.1 1.2 0v.1c.3.6.4-1.4.6-.7v-.3c.3-.1.1.3.3.4.1 0 0-.5.2-.4.1 1.2.6-.3.8 1-.2 0 .3.5 0 .8.1.1.6 0 .5-.5 0-.6.1-1.1-.2-1.6v.4c-.1-.4-.1-.2-.2-.5-.4 0-.5-.7-.7-.9-.1.5-.4.2-.5.2l-.1-.2c-.1-.5-.3 1-.3.1-.7.3-1.6.3-2.4.4-.1.3-.6 0-.4.6-.2-.7-.9-.9-1.1-.8v-.1c-.5-.9-.5.9-.9-.2 0 .8-.8-.2-1 .7-.1-.2-.1-.3-.1-.5-.7 0-1.6-.2-2.2-.3-.5.7-1.3-.3-1.8.7-.4-.2-1-.6-1.5-.2l.1-.1c-.6.1-1.4.1-1.8.7-.2-.9-.4-.8-.7-1.1-.4.4-1.2.3-1.8.7-.1-.4-.5.2-.5-.5-1.7 1.2-3.9.7-5.7-.3-.3.3-.6 1.1-.8 1.5v-.2c-.3.1-.6-.5-1-.4 0-.1 0-.1.1-.2-.3.3-.6-.5-1-.1v-.2l-.3.2c0-.2.1-.5.2-.4-2.8-.4-5.9.4-8.8-.2l.1-.2-.6.3c0-.1.1-.2.1-.2-.7-.5-1.5 0-2.2-.2 0-.1.2-.3.1-.4-.6.5-.7-.9-1.2.2 0-.1 0-.3.1-.4-.8.1-1.5 0-2.2-.1-.7-.1-1.4-.4-2.1-.7-1.4.8-2.6-.5-4.1 0l.1-.2c-1.8.3-3.4-.8-5.1-1-.7-.2-1.2 0-1.9-.1v-.3c-1.4.8-2.4-1.3-3.8-.3l.1-.3c-.3.5-.7-.3-.8.7l-.2-.3c-1 1.2-1.5-.8-2.6 0l.1-.2c-.3.2-.6.3-.8 0 0 0 0-.1.1-.2-.8-1-1.9-.1-2.8-.2l.1-.4c-.5.5-1.3 0-1.9.2v-.2l-.3.3v-.4c-1.4-.2-2.1.1-2.9.2zM421.3 138.3zM497.3 142.3c.1 0 .1 0 0 0 .1 0 .1 0 0 0z"/></g><g><path class="st7" d="M451.7 193.6h.1l.1-.4zM452.7 191.9c-.1 0-.1-.1-.2-.1l-.3 1.4c.7.2.1-1.4.5-1.3zM453.1 191.8c.5-.1.4-.5.3-.7.1.4-.7.4-.3.7zM487.3 184.9h-.1.1zM496.8 183.5l.1-.4c-1.8.5-3.8-.3-5.8-.1l.1-.1h-1.8c-.6 0-1.2.1-1.7.2-1.2.1-2.3.3-3.4.4-2.3.3-4.6.7-7 .9.1 0 .1-.2.2-.2-.2.1-.5.4-.7.4-.1-.1.1-.2.1-.2-1-.5-2.9.5-3.6.1-.3.1-.4.3-.2.5-3.7.3-7.7.6-11.5 1.3-.2-.1-.2-.2-.2-.4l-.6.2-.3.2c-.1.2-.8.8-1.3 1.2-.6.5-1.2.9-1.8 1.3-1.2.8-2.5 1.6-3.7 2.3 0 .3.4 0 .3.4 1.1-.4 1.2-1.6 2.3-1.8v.3c.7-.3-.2-.6.5-.8.4 0 .1.3.2.2.6-.5 1.2-.9 1.8-1.3.3-.2.6-.5.9-.7l.4-.4.2-.2v-.1c.1.1.2.1.2.2h.4c.3 0 .6 0 .8.2.4-.2.8-.2.9-.6 5.3 0 10.6-.7 16-1 2.5-1.2 5.5-.1 8.5-.7v.1c1-.3 2.4-.6 3.5-.5.3-.2.6-.3 1-.4 6.8 1.2 14 1.6 21 2.9 4 .7 7.7 1.5 11.4 2.1 1.9.3 3.7.6 5.6.8.5 0 .9.1 1.4.1h1l.7-.1c1-.1 1.9-.2 2.9-.4 0 .1.1.2-.1.2 2.3-.2 4.3.2 6.5-.1v.1c1.9-.3 4-.4 6-.4h5.7l.6.5.9.6c.6.4 1.2.8 1.8 1.1 1.2 1 2.5 2 3.7 3.1 1.3 1 2.6 2.1 3.9 3.2.1 1.5.3 3.1.4 4.7.2 1.6.3 3.3.5 4.9h-.2c.8 5.2 0 10.4.7 15.6 0 2.6.4 5.2.8 7.9 1 2.8 2 5.6 2.3 8.4-.1 1.2.2 2.3.7 3.6 1.7 2 3.9 3.8 4.5 5.9.5 1.2 1 2.3 1.6 3.3l.9 1.5.5.8.3.5v2.7c0 1 0 2 .1 3 .1 2 .3 4.1.5 6.1-.1 1-.2 1.9-.2 2.9v1.4c0 .5 0 .9.3 1.3 2 3.5 4 7 4.9 10.8v.1c1.2.6 2.1 1.9 2.9 3.2.4.7.8 1.3 1.1 2 .2.3.3.7.5 1 .2.4.4.7.7 1l.1-.2c.1 1.4 2.4 1.2 2 2.5l-.1-.1c0 .8 1.9.1 1.7.8l.3-.1c.5.5-.2.3.1.8.2.1.4-.3.6.1-.8.9 1.4 1.1.5 2-.3-.3.1.8-.8.4.1.3 1 1.1 1.3.6.5-.4 1.2-.4 1-1.2l-.4.2c.1-.5 0-.3.2-.6-.6-.7-.2-1.2-.5-1.9-.7 0-.9-.6-1.1-1l.1-.3c.2-.5-1.4-.1-.6-.5-.7-.6-1.4-1.3-2.1-2.1-.3-.4-.6-.8-.9-1.1-.1-.2-.6-1-.9-1.4-.5-.1-1.1-1.4-1.3-.6.2-.9-.8-2.3-1.2-2.7.1 0 .1-.1.2 0-.2-1.5-1.6-.4-1.6-2-.3.1-.3.1-.4.1v-.2c-.1-.2-.1-.4-.2-.5-.2-.3-.4-.6-.8-.7.1-.2.2-.3.4-.3-.8-1.8-1.4-3.8-2.1-5.3-1.1-.8-1.2-2.6-2.1-3.6h-.3c.1 0 .2-.8.3-1.4.1-.7.1-1.4-.1-2.1l.1.1c0-1.5 0-3.5-.5-4.6 1-.4.8-1.1 1.2-1.7-.4-1.1-.1-3.2-.4-4.8.5-.2-.1-1.3.5-1.4v-.3-.5-1c-.3-.4-.6-.7-.9-1.1l-.6-.6c-.4-.4-.7-.8-1.1-1.3-.7-.9-1.4-1.8-2-2.8-1.3-2-2.4-4.1-3.3-6.1h.1c-.2-.1-.3-.1-.5-.2-.2 0-.3.1-.5.1s-.3 0-.5-.1-.3-.3-.5-.4c0-.1.1-.1.2 0-.3-.8.1-1.8-.2-2.6.1 0 .1 0 .2.1-.5-.7.1-1.8-.6-2.6l.1-.1-.4-.5c.2 0 .5-.1.5.2-.2-1-.4-1.9-.7-2.9-.1-.5-.3-1-.4-1.5l-.2-.7-.1-.4-.1-.2c-.3-2.7-.7-5.5-1-8.2-.3-2.8-.6-5.6-.8-8.4l.2.3-.5-1.5c.1 0 .2.1.2.1.2-1.9-.5-3.8-.5-5.7.1 0 .3.3.4 0-.7-1.3.6-2.2-.6-2.8.1-.1.3-.1.4 0-.2-1.1-.3-2.2-.5-3.4l-.2-1.7-.2-2.2-1.3-1.1-.9-.8c-.6-.5-1.2-1.1-1.8-1.6-1.5-.6-2.7-1.5-4-2.5-.6-.5-1.2-1-1.9-1.5-.3-.2-.6-.5-1-.7-.3-.2-.8-.5-1.1-.7-.3 0-.5.1-.7.1v-.2c-4.4.8-8.9-.1-13.4.1-1.8-.1-3.1.2-5 .2v-.3c-.8.3-1.6.3-2.4.3-.4 0-.8 0-1.2-.1l-1.2-.3c-1.6-.5-3.2-.9-4.9-.6l.3-.3c-.6.5-1.9-.5-1.9.5l-.5-.4c-2.4.9-3.9-1.2-6.7-.8l.2-.2c-.7.1-1.6.1-2.1-.2.1 0 .1-.1.2-.1-2.1-1.2-4.8-.6-7.1-.9l.3-.4c-1.2.3-3.3-.4-4.8-.3l.1-.2-.8.2v-.4c-1.7.2-3.6.3-5.6.2zM477 184.4z"/><path class="st7" d="M594.2 293.5c0 .1.1.2.1.2s-.1-.1-.1-.2z"/></g><g><path class="st9" d="M415.9 166.1l.2.2.6-.1zM419.8 166.6c-.1-.1 0-.2-.1-.3-.8.1-1.6.1-2.4.2.7.9 2-.4 2.5.1zM420.4 167c.7.5 1.2.2 1.5.1-.5.2-1.5-.7-1.5-.1zM467.8 224c0-.1-.1-.2-.2-.2.1.1.1.2.2.2z"/><path class="st9" d="M480.6 240h.4c-1-1.6-2.2-3.4-3.3-5.1-1.1-1.7-2.3-3.5-3.7-5l.3.1c-3.1-4-5.9-8-8.5-12.2-2.6-4.1-5.1-8.4-7.4-12.9.1.1.2.1.3.3-.3-.4-.8-.8-1-1.3 0-.2.2.1.3.2-.4-2.2-3-5.6-3.1-7-.3-.5-.6-.7-.7-.3l-1.2-2.7-.6-1.4c-.2-.5-.4-.9-.6-1.3-.9-1.8-2-3.5-3.1-5.2-1.2-1.7-2.4-3.3-3.8-4.8-.7-.8-1.4-1.5-2.1-2.2-.4-.3-.7-.7-1.1-1l-1.1-.9c-.2-.3-.2-.5.1-.6-2.9-1.8-5.9-3.4-9-4.9-3.1-1.6-6.3-3.1-9.5-4.4-.3.1.6.5-.2.5 2 1.1 4.1.9 5.7 2.2l-.3.1c1.3.7.5-.5 1.8.5.5.4-.3.2 0 .4 2.9 1.2 5.6 2.9 8.3 4 .3.8 2.7 1.9 3.1 3.1l.9.6c.3.2.5.4.7.3 3.6 4.1 6.9 8.6 9.2 13.4 2.2 5.2 4.7 10.4 7.2 15.6 3.3 4.3 5.3 10.6 9.1 15.8 0 .1 0 .1-.1.1.7.8 1.5 1.8 2.3 2.9.8 1.1 1.7 2.2 2.4 3.2l1.6 1.4c2 3.1 4.2 6.2 5.6 9.4.3.8.6 1.6.9 2.6.1.5.4 1 .6 1.5.1.2.3.5.5.7l.5.6c.7.8 1.4 1.3 2 2 .6.7 1.2 1.3 1.7 2.1.3.4.5.7.7 1.1.2.3.4.8.5 1.1 0 .1.1.2.1.3 0 .1-.1.2-.1.3l-.1.2-.1.3-.3.6c-.9 1.5-2.1 3-3.2 4.5-2.3 2.9-4.8 5.8-7.4 8.4-1.2 1.2-2.5 2.4-3.7 3.4-1.3 1.1-2.6 2-3.9 2.7-3 1.5-5.9 2.9-8.9 4.3l-2.2 1.1-1.1.5-.5.3-.1.1-.2.1c-1.6.5-3.2 1.1-4.7 1.7-1.6.6-3.1 1.4-4.6 2.2-1.5.9-2.9 1.7-4.4 3h1.9c-.4-.3-1-.8-1.3-1.3-.2-.3-.4-.6-.2-1 .4-1.2 1.1-2.6 1.8-3.9.1.1.2 0 0 .4.6-1 1.2-2 1.9-2.9.3-.4.7-.9 1.1-1.3.2-.2.4-.4.6-.7.2-.3.4-.6.6-.8 1.2-2.1 2-4.2 2.7-6.4h.1c1.5-5.5 3.1-11.1 4.7-16.8l.2-.7c.1-.1 0-.2-.1-.3l-.1-.3-.4-1.1-.8-2c-.5-1.4-1-2.7-1.6-4-1.2-2.6-2.4-5.2-4.2-7.4-.9-1.4-2.2-2.6-3.3-3.8-1.2-1.2-2.3-2.5-3.4-3.8-2.3-2.7-4.9-5.1-7.7-7.4-5.4-4.7-11.6-8.6-16.4-13.7l.2-.1c-2-1.9-3.9-4-5.7-6.1-.9-1-1.8-2.1-2.7-3.1-1-1-2.1-1.9-3.3-2.6-2.4-1.4-5-2.4-7.2-4-2.2-1.5-4.1-3.5-5.9-5.6-1.8-2.2-3.5-4.6-5.5-6.8-.5-.6-1-1.1-1.5-1.6s-1-1-1.5-1.6c-.9-1.1-1.7-2.3-2.2-3.7-1.2-2.7-1.7-5.7-1.6-8.6 0-.7.1-1.5.2-2.2.1-.7.2-1.5.5-2.2.6-1.4 1.9-2.3 3.1-3 2.3-1 4.8-2 7.4-2.9 2.4-.9 5.1-1.8 7.5-2.6 2.5-.8 4.9-1.5 7.1-1.8 6.9-1.2 13.4-3.1 19.7-5.8 3.1-1.3 6.2-2.9 9.2-4.6 2.9-1.8 5.8-3.8 7.6-6.8 4-5 6.7-10.8 9.3-16.5 2.6-5.7 5-11.6 8.2-16.9 1.1-2.7 2.3-5.5 3.6-8.4 1.3-2.9 2.7-5.9 3.5-9l-.3.1c1.4-2 .5-5.3 2-6.4v.3c.9-1-.5-3.2.4-3.7l-.2-.3c.4-1.5.4-.1.8-1.1.1-.4-.5-.3 0-1.1 1.2.1.8-3.6 2.1-3.3-.2.8.9-1.1.6.8.3-.5.9-2.9.3-2.8-.5-.4-.7-1.5-1.6-.1l.3.4c-.6.4-.3.3-.7.4-.6 1.9-1.3 2-2 3.3.2 1.1-.5 2.3-.8 3l-.3.2c-.6.3.3 2.5-.4 1.6-1 3.9-2.3 8.4-3.7 12.7.1.7-1.1 3.3-.2 2.5-1 .8-2.3 3.9-2.7 5.1 0-.1-.1-.1 0-.3-.9 1-.9 1.7-1 2.4 0 .3-.1.7-.2 1-.2.3-.4.6-.9 1 .5.7-2.1 3.7-1.8 5.3-.3.2-.5.2-.6 0-1.7 3.7-3.8 7.7-5.3 10.8-.6 3-3.4 6.2-3.7 8.9-1.2 1.8-3.2 4.5-4.4 7.1l.1-.3c-.4.7-.9 1.4-1.4 2.1l-.7 1.1c-.2.3-.5.6-.7.9-1 1.1-2.2 2.1-2.9 3-.7-.1-1.2 0-1.8.2-.6.2-1.2.5-1.9.7-1.7 1.4-5.7 3.1-8.7 4.7-.6-.2-2.5 1.2-2.9.6-4.2 2.2-9.2 4-14.3 5.5-5.2 1.5-10.5 2.6-15.5 3.4l.1-.1c-.2.1-.5.3-.7.5l-.4.3-.2.2c-.1.1-.3.2-.4.2l.3-.1c-.8.6-1.5 1.2-2.3 1.8-.1 0-.2-.1.1-.2-1.7.7-3.6.9-5.3 2 0-.1 0-.1.2-.4-.7.6-1.6 1.1-2.5 1.7-.8.7-1.8 1.7-1.9 3.2-.1.1-.1.1-.2.1v1.4c-.2-.1-.5-.2-.3-.9-.4 2.1-.5 4.3-.3 6.4.2 2.1.6 4.3 1.5 6.4.8 2 2.1 4 3.6 5.6 1.4 1.4 2.6 2.9 4 4.5 2.6 3.1 5.2 6.4 8.7 9 1.7 1.3 3.7 2.3 5.5 3.1 1.9.9 3.7 1.7 5.1 2.8-.2-.1-.4-.1-.6-.2.9.5 1.6 1 2.4 1.7-.1.1-.2 0-.4-.1 2.4 3.2 5.6 6 8.3 8.9-.1.1-.6-.2-.3.2 2.5 1.7 2.9 3.9 4.8 4 .1.1 0 .4-.3.3 1.6 1.3 3.3 2.5 4.9 3.7 1.6 1.2 3.2 2.5 4.8 3.8 3.1 2.6 6.2 5.3 8.8 8.3 1.2 1 2.5 2.4 3.8 3.6 1.3 1.3 2.6 2.5 3.7 3.9s1.9 3 2.7 4.6l2.4 4.8h-.2c.5 1 1 2.1 1.4 3.1l.7 1.6.3.8c.1.1 0 .3 0 .4l-.1.4c-.6 2.3-1.2 4.5-1.9 6.8-1.4 4.5-3 9.1-4.7 13.4-.2.4-.4.9-.6 1.3-.2.4-.4.8-.6 1.1-.4.7-1 1.3-1.5 2-1 1.3-1.9 2.7-2.9 4.4l-.3-.1c-.5 1.2-1.1 2.3-1.4 3.6-.2.7.2 1.4.6 1.9.4.6.8 1 1.3 1.5l.1.1.2-.1c1.8-1.2 3.8-2.1 5.8-3 2-.9 4-1.7 5.9-2.8l-.3.5c.4-.5 1.4-.7 2.3-1 .8-.4 1.4-.8 1-1.1l1.2-.3c1.8-1.6 3.8-2.5 5.9-3.3 1.1-.4 2.2-.9 3.3-1.4 1.1-.5 2.3-1.2 3.3-2.2l-.2.4c1.2-1 2.4-2.3 3.4-2.9-.1.1 0 .1-.2.4 4.2-2.6 7.1-7.3 10.2-11.3v.7c.6-1.1 1.6-2.5 2.7-4 .5-.8 1.1-1.5 1.5-2.4.2-.5.5-1 .3-1.5-.1-.5-.3-.9-.5-1.3l.3.1c-.3-.5-.7-.9-1.1-1.3l.3-.3c-.6-.9-1.3-1.7-2-2.5-.7-.7-1.6-1.4-2.2-2.1-.7-.7-1.2-1.4-1.5-2.4-.6-.9-.9-1.9-1.4-2.8z"/><path class="st9" d="M458.2 204.2s0 .1 0 0c.1.2 0 .1 0 0zM469.1 67.7c.1-.2.1-.3.2-.5-.1.1-.2.4-.2.5z"/></g><path d="M452.2 56.8c-.8.3-2.2 1.5-3.1 3 1.6 1.3 6.1-4.6 7.1-2.1-1.4 4.3-7.9 10.2-8.5 13.6-.3 2.1 2.2 1 2.7.9 1-.1 1.7-.9 1 1.9-.7 2.6-2.3 4.7-2.9 7.1-.8 2.9.2 1.5.6 2.7.4 1.4-.2 2.2-1.4 5.4-2.8 7.5-3.3 11.6-2.8 16.3" fill="none" stroke="#fff" stroke-width="1.347" stroke-miterlimit="10"/><path d="M530.7 198c-6.1 7.1-14.9 12.4-22.1 18.2-6.1 4.9-12.8 9.1-19.4 13.1-2.7 1.6-5.8 3.1-7.8 5.5 22.4-7.3 45.5-14.4 66.5-25.8-6.8 4.9-14.2 8.7-21.1 13.6-7.8 5.6-18.2 11.7-23.9 20 6.6-2.6 12.8-6.1 19.5-8.5 5-1.7 11.6-4.7 16.9-4.4-6.1 6.8-18.6 6.9-24.1 14.6 4.5 1.9 11.2-1.1 15.8-2.4 4.6-1.3 9.3-2.5 14.1-2.7-1.6 3.3-8.1 5.2-11.2 6.8-3 1.6-13.4 5.1-14.4 9.1-1.6 6.7 16.9-.8 20.1.8-1.8 3.8-13.7 8.7-10.9 13.6 1.5 2.7 12 3.3 14.6 4.4 6.5 2.8 11.4 8.4 17.3 12.3" fill="none" stroke="#000" stroke-width=".547" stroke-miterlimit="10"/><g><path class="st9" d="M379.7 189v-.1l-.3.3zM378.2 189.4v.2l1-.7c-.1-.6-.9.9-1 .5zM378 189.2c-.2-.3-.5.1-.6.2.2-.2.6.3.6-.2zM360.9 174.7c.1 0 .1 0 0 0zM359.4 167.9l-.3-.1c.4 1.4-.3 2.8 0 4.3l-.1-.1c0 3.6 1.4 6.7 2.9 9.8-.1 0-.2 0-.2-.1.2.1.5.2.5.4-.1.1-.2 0-.2 0-.3.9 1.2 1.8.9 2.4.1.2.4.1.5-.1.1.3.4.6.5.8.1.1.1.2.2.3.1.1.2.1.3.2.2.1.6.2.9.3.3.1.7.2 1 .3 1.3.4 2.7.7 4.1.8.1.1.1.3 0 .5 2.5-.2 4.8.8 7.1 1.6.2-.2-.2-.3.1-.5-.7-.5-1.5.2-2.1-.4l.2-.2c-.4-.3-.3.6-.7.1-.1-.3.1-.3.1-.3-1.1-.2-2.1-.7-3.3-.5-.1-.6-1.1-.4-1.3-1-.3.1-.6 0-.8.3-.9-.4-1.8-.7-2.7-1l-1.3-.4-.9-.3c-.2 0-.7-1.1-1.1-1.9-.4-.9-.8-1.7-1.1-2.6-1.6-1.4-.9-3.8-1.6-5.8h.1c-.3-.6-.6-1.6-.5-2.4l-.5-.7c.2-1.2.4-2.5.7-3.6.3-1.2.7-2.4 1-3.6.8-2.4 1.7-4.8 3-6.9 1.4-2.5 3.1-4.6 4.8-6.6 1.7-2 3.4-4 5.1-6.3.1.1.1.1 0 .2.5-.6 1.2-1 1.8-1.4.6-.4 1.3-.8 1.9-1.3l.1.1c.7-.7 1.5-1.3 2.3-1.8.8-.5 1.7-1.1 2.6-1.6 1.7-1 3.4-2.1 4.7-3.5 3.9-2.4 8.1-5.3 11.9-8.3l.1.2c2.9-2.5 6.6-3.8 9.5-6.2 3.5-1.8 6.2-5.4 9.9-6.9 2.6-.4 4.3-3.9 6.8-4.2.2 0 .4-.1.7-.2.3-.2.5-.4.7-.7.2-.3.3-.5.5-.8.3-.5.5-1.1.7-1.6.4-1.1.6-2.2.7-3.3.2-2.3.1-4.5-.1-6.8 1.1-4.3.2-8.8 1.7-12.9-.5-2.1 1.3-4.1 1.3-6.4l-.3.1c.8-.7-.9-1.9.3-2.3v.1c.6-.4-1.3-1.1-.6-1.3l-.3-.1c0-.5.3 0 .5-.4 0-.2-.5-.1-.3-.4 1.2 0-.2-1.3 1.2-1.2 0 .3.5-.4.8.3.1-.2.1-1-.4-1-.6-.1-1.1-.5-1.6 0l.4.1c-.4.1-.2.1-.6.2-.1.7-.7.7-1 1.2.5.4.1.8.1 1.1l-.3.1c-.5.1.9.9.1.6.1 1.4 0 3-.2 4.5.3.2-.1 1.2.5.9-.8.3-1 1.5-1.1 1.9-.1 0-.1 0-.1-.1-1 .7.8 1.1-.4 1.7.8.2-.4 1.4.5 1.9-.2.1-.4.1-.5 0-.2 1.4-.6 2.9-.8 4.1.6 1.1-.6 2.4.3 3.4-.3.7-.8 1.8-.6 2.8l-.1-.1c-.1 1.1-.2 2.5.3 3.4-1 .2-.9.7-1.2 1.1.3.8-.1 2.3.1 3.5-.5.1 0 1-.6.9.1.8.2 1.7 0 2.6-.1.8-.4 1.8-.6 1.9l-1 .4c-.4.2-.8.4-1.3.5-.9.3-1.7.6-2.6.9v-.1c-.2.5-.3 1.5-.4 2.1-.1 0-.1-.1 0-.2-.5.4-1.3.2-1.8.6v-.2c-.4.6-1.3.2-1.7 1l-.1-.1-.3.4c-.1-.2-.3-.5 0-.5-4.8 2.7-9 6.7-13.6 9.8l.1-.3-.7.9c-.1-.1 0-.2 0-.2-1.3.5-2.2 1.8-3.3 2.5-.1-.1 0-.4-.2-.4-.5 1-1.7.3-1.5 1.6-.1 0-.2-.2-.2-.4-2.1 1.9-4.4 3.5-6.9 4.9-1.4 2.2-4.1 2.8-5.7 4.8l-.1-.2c-1.1 1.1-2.5 2-4 2.7-1.4.7-2.9 1.5-4.3 2.4-1.2.7-1.8 1.5-2.8 2.4l-.2-.2c-.6 1.1-1.6 1.8-2.6 2.5-.5.4-1 .7-1.4 1.2-.4.4-.7 1-.9 1.6l-.2-.4c.2.6-1.1 1-.2 1.5l-.5.2c0 1-.5 1.5-1.1 2.1-.6.5-1.3 1.1-1.4 2.2l-.1-.2c-.1.5-.3 1.1-.7 1.4 0-.1-.1-.1-.1-.2-1.6 1-1.5 3.2-2.2 4.7l-.3-.3c.1 1-.9 2.2-1 3.4l-.2-.1.1.6-.4-.1c-.6 1.1-.7 2.5-.8 4zM361.8 182c-.1 0-.1 0 0 0zM430.4 72.5c0-.1.1-.1.1-.2-.1.1-.1.2-.1.2z"/></g><g><path class="st7" d="M361 17.1l-.1.1.2-.2zM361.4 16.9l.1-.1-.5.3c-.3.3.6-.3.4-.2zM361.4 17c-.1.1.1-.1.2-.1-.2.1 0-.1-.2.1zM362.7 18.6z"/><path class="st7" d="M363.8 18.4l.2-.1c-.4.2-.1-.2-.3-.2h.1c-.1-.3-.5-.3-.8-.4 0 0 .1 0 .1-.1-.1 0-.2.1-.2.1l.1-.1c.3-.3-.3 0-.1-.2 0 0-.2.1-.3.2-.2-.1-.4-.3-.8-.3l.2-.2c-.6.2-.5-.1-.6-.3-.1.1-.1.1-.3.2-.1.2.4-.1.2.1l-.1.1c-.1.1.3-.2.2-.1-.1.1-.2.1-.2.1.1 0 0 .2.4 0-.3.2 0 .1-.2.3.1-.1.1 0 .3-.1 0 .3.5.4.6.7.6-.3.1.3.4.3h-.1c.2 0 .3 0 .2.1l.2-.1c-.2.7.4.7.4 1.2.1.5 0 1.1 1 .9-.1 0-.1.1-.1.1.2 0 .1.3.2.3h-.1c.6-.1.3.5.9.4.2.3.5.6.8.8l-.1.1c.4.1 0 .7.4.8 0 .4 1 .1.8.6-.4.5.8-.1.4.5-.6.9.2.8.8.7-.1.5.8.2.5.9.5-.1-.2.6 0 .7l.1-.1c-.3.3.6-.3.1.2-.3.2.7-.4.4-.2l.1-.1c.1 0-.2.1-.2.2 0 0 .3-.2.2-.1-.6.4.2 0-.5.5 0 0-.2.2-.4.3-.1.1 0 .1.3-.1s.6-.4.8-.6l-.2.2c.2-.2.1-.1.3-.2 0-.1.3-.3.4-.4-.3.2-.1 0-.1 0l.1-.1c.2-.2-.5.3-.1 0-.2 0-.2-.1-.3-.2-.2.1 0-.1-.3.2.3-.3.4-.4.3-.4 0 0 .1-.1.1 0 .4-.4-.5.3.1-.2-.4.3.1-.2-.4.1.1-.1.2-.1.2-.2-.1-.1 0-.3 0-.4-.4.2 0-.3-.5 0 .1-.1.2-.3 0-.3h.1c-.1-.1-.2-.1-.5.1l.5-.5c-.2.1-.3 0-.5 0 .2-.2-.1 0 .2-.2-.8.2-.7-.2-.4-.7-.2.1-.6.3-.8.5l.1-.1c-.1 0 .2-.3.1-.3.1 0 .1 0 .1-.1-.2.1.2-.3-.1-.1l.1-.1-.1.1c.1-.1.3-.2.2-.1-.2-.4-1-.4-1.1-.8l.1-.1-.2.1c.1 0 .1-.1.1-.1.1-.2-.2-.1-.3-.2 0 0 .2-.1.2-.2-.3.1.3-.4-.3 0 0 0 .2-.1.2-.2-.3 0-.4-.2-.5-.5-.6.2-.3-.3-.8-.1l.1-.1c-.5.1-.3-.4-.5-.6 0-.1-.2-.1-.3-.2l.1-.1c-.6.2.2-.6-.4-.4l.2-.1c-.3.2 0-.2-.4.2l.1-.1c-.7.4.1-.4-.3-.2l.1-.1c-.1 0-.2 0-.1-.1h.1c.4-.4-.2-.2-.3-.3l.2-.1c-.3.1-.1-.1-.3-.1l.1-.1-.2.1.2-.1c-.1 0-.3 0-.4-.1zM362.9 17.7zM370.6 25.9c0 .1 0 .1 0 0 0 .1 0 .1 0 0z"/></g><g><path class="st7" d="M351.4 29.1v.1l.1-.2z"/><path class="st7" d="M351.7 28.7v-.1l-.3.5c0 .3.4-.6.3-.4zM351.7 28.8c0 .1.1-.1.1-.2-.1.2 0-.1-.1.2zM353.8 29.4c0 .1-.1.1 0 0-.1.1-.1.1 0 0z"/><path class="st7" d="M354.6 28.8l.1-.2c-.2.3-.2-.1-.4 0v-.1c-.2-.2-.6.1-.9.1 0 0 0-.1.1-.1 0 .1-.1.2-.1.2s0-.1.1-.1c.1-.4-.2.1-.2-.1 0 0-.1.2-.1.3-.2 0-.5 0-.8.2 0-.1 0-.1.1-.3-.4.5-.5.2-.6 0-.1.1 0 .2-.1.3 0 .2.3-.3.2 0l-.1.1c0 .1.2-.3.1-.2 0 .1-.1.2-.1.2.1 0 .1.1.4-.2-.1.3.1 0 0 .3.1-.1.1-.1.2-.3.2.3.6.1.9.2.4-.5.3.2.5.1v.1c.1-.1.2-.2.3-.1l.2-.2c.2.7.7.5 1 .8.4.3.6.9 1.3.3 0 .1 0 .1-.1.1.2-.1.2.2.4.1v.1c.5-.4.6.3 1.1-.1.3.2.7.3 1.1.3v.1c.4-.1.4.6.8.5.2.4.9-.4 1 .1 0 .6.7-.5.6.2 0 1 .6.6 1.1.2.2.5.9-.2.9.5.3-.4.1.6.3.6l.1-.1c-.1.5.4-.6.2.1-.1.3.4-.7.3-.3l.1-.2c.1 0-.1.2-.1.3 0 0 .1-.3.1-.2-.3.7.2-.1-.1.6 0 0-.1.3-.2.4 0 .1.1.1.2-.2.1-.3.3-.6.4-.9l-.1.2c.1-.3 0-.1.1-.3 0-.1.1-.4.1-.6-.1.3-.1.1-.1 0v-.1c.1-.3-.3.5-.1.1-.2.1-.3 0-.4 0-.1.2-.1-.1-.2.3.1-.4.1-.6.1-.6v-.1c.2-.6-.3.5-.1-.2-.2.5 0-.2-.3.3 0-.1.1-.2.1-.3-.1-.1-.2-.3-.2-.3-.2.4-.1-.3-.4.3 0-.1 0-.4-.2-.2v-.1c-.1 0-.2 0-.4.3.2-.5.1-.5.1-.6-.2.2-.2.1-.4.3.1-.3-.1.1 0-.3-.5.6-.7.2-.8-.4-.1.2-.3.6-.5.8v-.1c-.1 0 0-.3-.1-.3 0-.1 0-.1.1-.1-.1.1 0-.3-.1-.1v-.1l-.1.1c0-.1.1-.3.1-.2-.4-.3-1 .2-1.4-.1l.1-.1-.2.2c0-.1 0-.1.1-.1 0-.2-.3 0-.3 0 0-.1.1-.2.1-.2-.2.3.1-.5-.3.2l.1-.2c-.3.1-.5 0-.7-.2-.4.5-.4-.1-.8.3v-.1c-.4.3-.5-.2-.8-.2-.1-.1-.2 0-.3 0l.1-.2c-.4.5-.2-.7-.6-.1l.1-.2c-.2.3-.1-.2-.3.4v-.2c-.4.7-.1-.4-.4 0l.1-.1c-.1.1-.2.1-.1 0V29c.1-.6-.3-.1-.4-.1l.1-.2c-.2.3-.2-.1-.3 0l.1-.1-.1.1.1-.2c-.2.1-.3.3-.5.3zM353.4 28.6c.1 0 .1 0 0 0zM364.7 31.8z"/></g><g><path class="st2" d="M431 217.3c-.2-1.5-.2-3 .1-4.6.3-1.5 1-3 2-4.2 1-1.2 2.3-2.1 3.7-2.8 1.4-.7 2.9-1.1 4.4-1.3 3.1-.5 6.1-.4 9.2-.1 1.5.2 3 .4 4.5.7 1.5.3 3 .6 4.5.8-3-.2-6-.7-9-.8-3-.2-6-.2-9 .3-2.9.4-5.8 1.5-7.8 3.7-1 1.1-1.7 2.4-2.1 3.9-.4 1.4-.5 2.9-.5 4.4z"/></g><g><path class="st2" d="M409.3 234.2c-.4-2.9-.2-6 1.2-8.7.7-1.4 1.8-2.5 3-3.4 1.2-.9 2.7-1.5 4.1-1.9 2.9-.7 5.9-.8 8.9-.5 1.5.1 2.9.4 4.4.6 1.4.3 2.9.6 4.3.8-2.9-.2-5.8-.7-8.8-.8-2.9-.1-5.8-.1-8.6.7-1.4.4-2.7.9-3.9 1.7-1.2.8-2.1 1.9-2.9 3.1-.8 1.2-1.2 2.6-1.4 4-.3 1.5-.3 3-.3 4.4z"/></g><g><path d="M332.5 250.2c-1.5 3.4-2.5 7.2-2.8 11.2-1.8 18.8 10.1 35.3 26.8 37 16.6 1.6 31.6-12.3 33.5-31 1.8-18-9.1-33.9-24.6-36.7l-32.9 19.5z" opacity=".75" fill="#00e5ff"/><path class="st13" d="M386.8 198c-1.7 6.9-4.2 13.6-7.6 19.9-.9 1.6-1.8 3.1-2.9 4.5-.5.7-1 1.5-1.7 2.1-.6.7-1.3 1.3-2 1.8-2.8 2.2-5.8 4.2-8.9 6-6.1 3.7-12.3 7.1-18.5 10.6-3.1 1.7-6.2 3.5-9.2 5.3-1.5.9-3 1.8-4.5 2.8-1.5 1-2.9 2-4.1 3.1l.2-.4c-1 7.1-.8 14.6 1 21.5.9 3.5 2.3 6.8 4.2 9.8 1 1.5 2.1 2.9 3.3 4.1 1.2 1.2 2.7 2.3 4.1 3.4 2.9 2.1 6.1 3.9 9.4 5.1 3.3 1.2 6.9 1.9 10.4 1.8 3.5-.1 7.1-.9 10.3-2.3 3.3-1.4 6.3-3.4 9.1-5.7 2.7-2.3 5.1-5.1 7-8.1 1.9-3.1 3.3-6.4 4.2-9.9 1.8-7 1.4-14.5-.9-21.3-1.2-3.4-2.7-6.8-4.5-9.9-1.8-3.2-3.9-6.2-6-9.2-1-1.5-2-3.1-2.8-4.8-.7-1.7-1.4-3.4-1.8-5.2-.9-3.6-1.2-7.3-1.4-10.9.3 3.7.8 7.3 1.7 10.8.4 1.8 1.1 3.5 1.9 5.1.8 1.6 1.8 3.2 2.8 4.7 2.1 3 4.4 5.9 6.3 9.1 1.9 3.2 3.5 6.5 4.7 10.1 2.5 7 3 14.8 1.3 22.1-.9 3.6-2.3 7.2-4.3 10.4s-4.5 6.1-7.3 8.5c-2.8 2.5-6 4.5-9.5 6.1-3.5 1.5-7.2 2.4-11 2.5-3.8.1-7.6-.6-11.2-1.8-3.6-1.3-6.9-3.2-9.9-5.4-1.5-1.2-3-2.3-4.3-3.6-1.4-1.3-2.5-2.9-3.6-4.4-2.1-3.2-3.5-6.7-4.4-10.4-.9-3.6-1.4-7.4-1.5-11.1-.1-3.7 0-7.4.6-11.2v-.3l.2-.2c1.4-1.3 2.9-2.4 4.4-3.3 1.5-1 3-1.9 4.6-2.8 3.1-1.8 6.2-3.5 9.3-5.2 6.2-3.4 12.5-6.7 18.6-10.3 3.1-1.8 6.1-3.7 8.9-5.8 2.8-2 4.8-5.1 6.6-8.1 1.8-3 3.4-6.2 4.7-9.5 1.9-3.3 3.1-6.7 4-10.1z"/><path class="st2" d="M382.4 291.2c-1.8.5-3.6.8-5.5 1.1-1.9.3-3.7.4-5.6.4-1.9 0-3.8-.1-5.7-.6-1.9-.5-3.8-1.3-5.2-2.8-.7-.8-1.2-1.7-1.5-2.7-.3-1-.4-1.9-.5-2.9-.3-1.8-.6-3.7-.8-5.6-.4-3.7-.7-7.5-.6-11.2.1-1.9.2-3.8.5-5.7.3-1.9.7-3.8 1.8-5.6.5-.9 1.3-1.8 2.4-2.3 1-.4 1.8-.6 2.7-.9 1.8-.6 3.6-1.1 5.3-1.6l10.7-3.2c3.6-1 7.2-2 10.6-3.4-1.6 1-3.3 1.7-5.1 2.3-1.7.7-3.5 1.4-5.2 2-3.5 1.3-7 2.5-10.5 3.7l-5.3 1.8c-.8.3-1.8.6-2.5.9-.6.3-1.1.9-1.5 1.6-.8 1.4-1.2 3.2-1.5 5-.3 1.8-.4 3.6-.4 5.4-.1 3.7.1 7.3.5 11 .2 1.8.4 3.7.6 5.5.1.9.2 1.9.4 2.6.2.8.6 1.5 1.1 2.2 1.1 1.3 2.7 2.1 4.4 2.6 1.7.5 3.5.8 5.4.9 3.6.3 7.3 0 11-.5zM351.8 267.8c-.4-2-1.6-3.9-3.3-5-1.7-1.2-3.8-1.6-5.7-1-1.9.5-3.4 1.9-4.2 3.5-.8 1.6-1.1 3.6-.7 5.4.4 1.8 1.3 3.5 2.7 4.7 1.4 1.2 3.3 1.9 5.2 1.6 1.9-.2 3.7-1.4 4.8-3.1 1.3-1.9 1.6-4.1 1.2-6.1zm0 0c.4 2 .2 4.2-.8 6-.9 1.9-2.7 3.4-4.8 4-2.1.6-4.6.1-6.4-1.2-1.9-1.3-3.2-3.4-3.6-5.6-.4-2.2-.1-4.7 1.2-6.6 1.2-1.9 3.3-3.3 5.5-3.6 2.2-.3 4.4.4 6 1.8 1.5 1.3 2.5 3.1 2.9 5.2z"/><path d="M384.3 278.2c-3 5.6-8.1 9.3-14.2 11-1.2.3-2.4-.8-2.6-1.9-.2-1.3.7-2.2 1.9-2.6 4.7-1.3 8.8-4.4 10.9-8.8 2.3-4.6 2.5-9.8 1.4-14.8-.6-2.8 3.9-3.5 4.5-.7 1.4 6 1 12.4-1.9 17.8z" opacity=".5" fill="#fff"/><path class="st13" d="M372.9 226.3c1.8 2.9-7.1 11.5-19.9 19.4-12.7 7.9-24.5 11.9-26.3 9.1-1.8-2.9 7.1-11.5 19.9-19.4 12.8-7.9 24.6-12 26.3-9.1z"/></g><g><path class="st9" d="M439.4 279.3h-.1l-.1.2zM438.4 280.1l.6-.6c-.4 0-.4.6-.6.6zM438.2 280.2c-.3.1-.3.3-.4.3 0-.1.5-.2.4-.3zM437.4 265c0 .1 0 .1 0 0 0 .1 0 0 0 0zM437.1 258.4h-.1c.3.5.5 1.2.5 1.9s-.1 1.3-.1 2v-.1c-.5 3.3-1 6.3-1.8 9.6v-.1.4c-.4.6-.5 2-.8 2.4 0 .2 0 .3.1.2-.4 1.2-.8 2.5-1.4 3.8-.1.3-.3.6-.5.9-.2.3-.5.6-.6.9-.4.5-.5 1-.2 1.3 0 .1 0 .1-.1.2.4.3.8.5 1.4.7l.4.1c.1 0 .2 0 .2.1l.6-.3c1-.5 2.1-1.1 3.1-1.6 0-.1-.3 0-.1-.2-.7.3-1.1.8-1.8 1v-.1c-.5.2 0 .2-.5.4-.2 0 0-.1-.1-.1-.4.2-.8.5-1.3.7.1.1-.6-.1-1-.2-.1-.2-.8-.6-.8-.8-.1 0-.1-.1-.1-.1s0-.1-.1-.1c0-.2.2-.6.5-.8l.5-.6c.1-.2.3-.4.4-.6.5-.9.8-1.7 1.1-2.6.6-1.8 1.1-3.6 1.6-5.4.1-1.8 1-3.7 1.3-5.8 0-.7.2-1.7.3-2.5 0-.2 0-.5-.1-.7.1-.6.2-1.2.2-1.9s-.2-1.3-.4-1.9c-.4-1.2-1-2.3-1.6-3.4-1.3-2.2-2.8-4.2-4.3-6.1-3.6-4.4-7.2-7.9-11.8-10.8 0 0 0-.1.1 0-1.3-.9-2.4-1.8-3.7-2.6-3.2-1.9-6-4.7-8.9-6.8-3.2-2.9-6.8-6.2-10.2-9.3h.1c-2.7-2.4-5-5.2-7.7-7.7-2.6-2.8-5.7-5.2-8.3-8-.7-.9-1.8-1.8-2.8-2.7-.5-.4-1.1-.8-1.5-1.2-.5-.4-.9-.9-1.2-1.3-1.3-1.9-2.3-3.8-3.1-5.9-.8-2.1-1.4-4.2-1.6-6.5 0-2.1.1-4.2.5-6.3.2-1 .5-2 .9-3s1-1.9 1.8-2.5c1.2-1.5 3.3-2.3 5.1-3.5h-.1c.8-.2 1.3-1.2 1.9-1.1l-.1.1c.4 0 .6-.9.9-.8v-.1c.4-.3.1.1.5-.1.1-.1 0-.2.3-.3.2.3 1-.6 1.3-.3-.2.1.5 0 0 .3.2 0 .9-.4.7-.6 0-.2.2-.5-.3-.4v.2c-.2-.1-.1 0-.3-.1-.6.3-.8.1-1.2.3-.2.3-.6.4-.9.5h-.1c-.2-.1-.5.7-.5.3-1.1.7-2.4 1.5-3.7 2.3-.1.2-1 .6-.6.6-.4 0-1.4.6-1.7.9 0 0 0-.1.1-.1-.8.3-.6.8-1.4 1.1.1.3-1.1.9-1.1 1.6h-.2c-.8 1.3-1.3 2.7-1.6 3.8 0 .5-.1 1.1-.3 1.7-.1.6-.2 1.1-.1 1.6-.1.7-.4 1.8-.2 2.8v-.1c0 .6 0 1.2.1 1.8.1.6.2 1.1.3 1.5-.3.4-.1.8-.2 1.3.3.7.6 2.2 1.1 3.2-.1.2.4.9.2 1 .4.7.8 1.5 1.3 2.2.2.4.4.8.7 1.1.3.4.5.7.8 1.1.3.4.6.7.9 1 .3.3.6.7.9 1 .6.6 1.2 1.2 1.7 1.9.4.2.9.4 1.3.6 0 0 0 .1-.1 0 .5.4.7.9 1.2 1.3h-.1c.5.3.7.9 1.3 1.3v.1l.4.2c-.1 0-.1.1-.3-.1 3.7 3.7 7.7 7.3 11.5 11l-.2-.1.8.6h-.1c.9 1 2 1.8 2.9 2.7 0 0-.2-.1-.1.1.8.5.9 1.2 1.5 1.3 0 0 0 .1-.1.1 2 1.7 4 3.6 5.9 5.4 1.9 1.2 3.5 3.1 5.5 4.4h-.1c2.4 1.7 4.8 3.9 7.4 5.6 1 .8 1.8 1.2 2.8 2v.1c1.9 1 3.4 3.1 5.3 4.3h-.2c.4.1 1 1 1.1.6l.2.3c1.4.8 1.9 2.1 3.4 3.3h-.1c.4.3.8.7 1 1.1l-.1-.1c.8 1.4 2.2 2.5 3.1 3.9l-.2-.1c.6.6 1.3 1.8 1.9 2.7h-.1l.4.4-.1.1c.7.8 1.4 1.9 1.8 3.2zM435.4 271.9zM382.5 167.7c.1 0 .1 0 .2-.1-.1 0-.2.1-.2.1z"/></g><g><path class="st2" d="M444.8 205.8c-3-4-6.1-7.9-9.3-11.6-3.3-3.7-6.7-7.3-10.5-10.5-1.8-1.7-3.9-3-6-4.4-2-1.4-4.1-2.9-6-4.5-1.9-1.6-3.7-3.4-5-5.7-.6-1.1-1.1-2.4-1.1-3.7-.1-1.3.3-2.7 1-3.8l.3-.4.4.3c.2.1.4.3.7.4.3.1.6.2.9.4l-.7.5c-.1-.6 0-1 0-1.5.1-.4.1-.9.1-1.2v-.4l.4-.1c2-.6 3.9-1.5 6.1-1.8 2.1-.4 4.3-.2 6.4.2 2.1.4 4.1 1 6.1 1.6 2 .6 4 1.1 6 1.6 4 1 8.1 1.8 12.3 2.4 4.1.6 8.3.8 12.5 1.2 8.3.7 16.7 1.3 25 1.3 4.2 0 8.4-.2 12.5-.6 1-.1 2.1-.2 3.1-.3 1-.1 2.1-.3 3.1-.5 2-.4 4.1-1 6.1-1.5-2 .5-4 1.1-6.1 1.6-1 .2-2.1.4-3.1.5-1 .2-2.1.3-3.1.4-4.2.5-8.4.7-12.5.8-8.4.1-16.8-.3-25.1-1-4.2-.4-8.3-.6-12.5-1.1-4.2-.5-8.3-1.4-12.4-2.4-2-.5-4.1-1-6.1-1.6-2-.6-4-1.2-6-1.6-2-.4-4.1-.5-6.1-.2s-3.9 1.2-5.9 1.8l.3-.5c.1.6 0 1-.1 1.4-.1.4-.1.9-.1 1.2l.2 1-.9-.5c-.2-.1-.5-.2-.8-.3-.3-.1-.6-.3-.9-.5l.7-.1c-.6 1-.9 2.1-.9 3.3 0 1.2.4 2.3 1 3.3 1.2 2.1 3 3.8 4.8 5.5 1.9 1.6 3.9 3.1 5.9 4.5 2 1.4 4.1 2.8 5.9 4.5 3.7 3.3 7.1 7 10.3 10.8 3.2 3.8 6.2 7.8 9.1 11.8z"/></g><path d="M450.4 120.9c1.6.5 7.2-3 9.3-4.3 4.7 5.7 11.4 9.8 17.6 14.2 2.6 1.9 4.3 3.9 6.7 5.9-4.5-.4-10.6 3.6-13.5 6.1" fill="none" stroke="#fff" stroke-width=".931" stroke-miterlimit="10"/><g><path class="st6" d="M92.1 120.5v30.3H77v-30.3H46.7v-15.2H31.5V59.9h15.2v45.5H77V59.9h15.2v45.5h15.2v15.2H92.1zM183.1 135.7v15.2h-45.5v-15.2h-15.2V75.1h15.2V59.9h45.5v15.2h15.2v60.6h-15.2zm-45.5 0h45.5V75.1h-45.5v60.6zM274 120.5v30.3h-15.2v-30.3h-30.3v-15.2h-15.2V59.9h15.2v45.5h30.3V59.9H274v45.5h15.2v15.2H274z"/></g></svg>
